#!OML:ASF F:\VICON\USERDATA\INSTALL\rory3\rory3.ASF
:FULLY-SPECIFIED
:DEGREES
411
root 0.940476 18.9709 23.1832 -170.857 -32.436 -169.771
lowerback -9.52005 0.765243 4.92991
upperback -7.6667 -0.112199 4.16111
thorax -2.6395 -0.518866 1.56894
lowerneck -9.79631 -3.63696 -4.30642
upperneck 36.9748 -9.70572 3.6595
head 14.8567 -5.55369 0.457279
rclavicle 9.04967e-014 -2.90226e-014
rhumerus 12.8127 71.6703 -27.3313
rradius 77.4775
rwrist -66.7095
rhand 19.177 3.58752
rfingers 7.12502
rthumb 43.7677 -20.3815
lclavicle 9.04967e-014 -2.90226e-014
lhumerus 49.6228 -68.4559 20.1192
lradius 91.7534
lwrist 61.5582
lhand 23.4797 18.2857
lfingers 7.12502
lthumb 47.7618 40.6089
rfemur -36.0359 0.896586 28.0707
rtibia 35.9354
rfoot 11.5183 -38.5527
rtoes 36.7947
lfemur -27.2074 -2.42114 -18.8175
ltibia 28.3985
lfoot -35.1435 14.5332
ltoes 25.3252
412
root 0.926121 18.9506 23.102 -172.051 -32.3241 -168.75
lowerback -9.38226 0.675972 5.01785
upperback -7.04211 -0.240064 4.98949
thorax -2.05761 -0.545808 2.36407
lowerneck -10.0478 -3.70184 -4.58271
upperneck 36.6368 -9.48569 3.44119
head 14.7386 -5.47994 0.456909
rclavicle -3.73218e-014 -6.36111e-014
rhumerus 15.497 70.4251 -23.5746
rradius 76.0593
rwrist -66.2275
rhand 19.5756 3.58165
rfingers 7.12502
rthumb 44.1395 -20.249
lclavicle -3.73218e-014 -6.36111e-014
lhumerus 45.9443 -66.9667 22.8903
lradius 92.0048
lwrist 61.5009
lhand 24.8395 19.0764
lfingers 7.12502
lthumb 49.0138 40.8019
rfemur -35.5252 1.08366 28.6915
rtibia 35.2956
rfoot 11.3969 -38.6977
rtoes 36.7979
lfemur -27.337 -0.632347 -18.6964
ltibia 28.6556
lfoot -35.6544 14.9961
ltoes 25.7362
413
root 0.905781 18.936 23.0374 -173.124 -32.1245 -167.647
lowerback -9.06212 0.734582 5.67953
upperback -6.65809 -0.200131 5.40981
thorax -1.83383 -0.532164 2.43263
lowerneck -10.2495 -3.69835 -4.2415
upperneck 36.4806 -9.41703 3.26812
head 14.6744 -5.40269 0.338832
rclavicle 1.79155e-014 1.51076e-014
rhumerus 16.5451 69.1562 -21.9012
rradius 74.6159
rwrist -65.864
rhand 20.4914 3.62877
rfingers 7.12502
rthumb 44.9926 -19.8737
lclavicle 1.79155e-014 1.51076e-014
lhumerus 43.9695 -65.9449 23.3382
lradius 92.2834
lwrist 61.5281
lhand 29.3956 20.7818
lfingers 7.12502
lthumb 53.1628 40.1706
rfemur -35.2189 1.56976 29.2528
rtibia 34.5216
rfoot 11.3085 -39.0041
rtoes 36.5271
lfemur -27.3582 -0.347142 -17.9869
ltibia 28.8803
lfoot -37.4368 14.5962
ltoes 29.4908
414
root 0.885847 18.9032 22.9757 -173.903 -31.8685 -167.006
lowerback -8.15095 0.881223 6.36741
upperback -6.77247 0.0492931 5.37243
thorax -2.45933 -0.445343 2.03421
lowerneck -10.1384 -3.69116 -4.03756
upperneck 36.7048 -9.69799 3.58221
head 14.7835 -5.48363 0.379666
rclavicle 2.10215e-014 2.94201e-014
rhumerus 15.3934 68.3324 -22.6045
rradius 73.0461
rwrist -65.2723
rhand 20.5785 3.69568
rfingers 7.12502
rthumb 45.0736 -19.7748
lclavicle 2.10215e-014 2.94201e-014
lhumerus 42.4901 -65.799 22.865
lradius 92.6545
lwrist 61.738
lhand 27.6189 20.2281
lfingers 7.12502
lthumb 51.5541 40.5949
rfemur -35.1174 1.41795 29.496
rtibia 33.7209
rfoot 12.0931 -38.775
rtoes 35.4766
lfemur -27.354 -0.136914 -17.7298
ltibia 29.0101
lfoot -39.5116 14.7849
ltoes 33.2685
415
root 0.863753 18.8537 22.9163 -174.646 -31.4124 -166.329
lowerback -7.30397 1.10652 7.07884
upperback -6.8305 0.402083 5.40381
thorax -2.98658 -0.310248 1.69548
lowerneck -10.1518 -3.78581 -4.08391
upperneck 36.8983 -10.0359 3.87549
head 14.9255 -5.61293 0.443078
rclavicle 2.24627e-014 -9.93923e-015
rhumerus 14.0516 67.1682 -23.4068
rradius 71.1102
rwrist -64.6986
rhand 19.8249 3.6237
rfingers 7.12502
rthumb 44.3719 -20.1191
lclavicle 2.24627e-014 -9.93923e-015
lhumerus 40.8906 -65.5051 22.6717
lradius 92.939
lwrist 61.6453
lhand 22.0167 18.1672
lfingers 7.12502
lthumb 46.4089 41.0895
rfemur -35.1173 0.918017 29.8736
rtibia 32.8447
rfoot 12.2247 -38.8325
rtoes 35.9801
lfemur -27.2944 0.559024 -17.5739
ltibia 29.1186
lfoot -41.561 15.1586
ltoes 36.0722
416
root 0.844879 18.8085 22.8443 -175.506 -31.3526 -165.723
lowerback -6.6969 1.02232 7.43847
upperback -6.66271 0.335474 5.66794
thorax -3.15192 -0.35249 1.76792
lowerneck -10.1834 -3.71614 -4.19448
upperneck 36.8337 -9.9374 4.02372
head 14.913 -5.56387 0.539402
rclavicle 4.30369e-014 -5.20816e-014
rhumerus 13.9882 65.8883 -23.0698
rradius 68.9989
rwrist -63.854
rhand 17.4494 3.58254
rfingers 7.12502
rthumb 42.1521 -20.9564
lclavicle 4.30369e-014 -5.20816e-014
lhumerus 38.4179 -64.8607 23.2096
lradius 93.1543
lwrist 61.1265
lhand 22.7962 19.0402
lfingers 7.12502
lthumb 47.1305 41.6487
rfemur -34.9205 0.933952 29.9794
rtibia 32.0519
rfoot 5.63567 -41.4098
rtoes 43.4452
lfemur -26.8855 1.78195 -17.6316
ltibia 29.0984
lfoot -42.2629 16.3926
ltoes 37.3603
417
root 0.816664 18.7526 22.7758 -176.222 -31.2625 -165.169
lowerback -6.40301 0.93144 7.82126
upperback -6.3447 0.21373 5.95915
thorax -2.9861 -0.411712 1.85111
lowerneck -10.629 -3.6625 -4.31776
upperneck 36.8218 -9.79155 4.12212
head 15.0156 -5.47616 0.610771
rclavicle 1.01579e-013 -9.97899e-014
rhumerus 14.3311 64.322 -22.4247
rradius 66.9245
rwrist -62.8413
rhand 18.8764 3.71447
rfingers 7.12502
rthumb 43.487 -20.3571
lclavicle 1.01579e-013 -9.97899e-014
lhumerus 36.3732 -63.9099 23.275
lradius 93.1738
lwrist 60.8248
lhand 22.4808 18.8498
lfingers 7.12502
lthumb 46.8387 41.5868
rfemur -34.8788 0.912224 29.9791
rtibia 31.2209
rfoot 1.56563 -42.4248
rtoes 46.884
lfemur -26.4156 2.60574 -17.6538
ltibia 29.0418
lfoot -42.4607 18.8963
ltoes 37.3682
418
root 0.787782 18.6828 22.7096 -176.773 -31.1071 -164.678
lowerback -6.21042 0.959415 8.20691
upperback -6.17109 0.242819 6.10659
thorax -2.91189 -0.405403 1.79167
lowerneck -10.8343 -3.66234 -4.29331
upperneck 36.8886 -9.86132 4.27225
head 15.1107 -5.47621 0.64732
rclavicle -4.72859e-014 9.70069e-014
rhumerus 13.3684 62.6772 -22.9668
rradius 64.8759
rwrist -61.8059
rhand 19.103 3.83306
rfingers 7.12502
rthumb 43.6985 -20.1613
lclavicle -4.72859e-014 9.70069e-014
lhumerus 35.1254 -63.2803 22.6554
lradius 92.9852
lwrist 60.8158
lhand 21.472 17.5063
lfingers 7.12502
lthumb 45.9038 40.6408
rfemur -35.0072 0.887224 29.924
rtibia 30.4085
rfoot 3.09726 -42.3668
rtoes 45.7299
lfemur -25.8841 3.19922 -17.6615
ltibia 28.8248
lfoot -42.6181 21.8289
ltoes 36.2431
419
root 0.763525 18.606 22.6406 -177.272 -30.9447 -164.219
lowerback -6.09348 1.00803 8.53121
upperback -6.0385 0.295625 6.20166
thorax -2.83725 -0.386251 1.71289
lowerneck -10.6847 -3.65671 -4.16739
upperneck 36.7182 -9.94456 4.47708
head 15.0066 -5.47266 0.705128
rclavicle -7.42958e-015 2.3059e-014
rhumerus 12.1322 60.9236 -23.8544
rradius 62.6065
rwrist -60.8634
rhand 18.6038 3.85493
rfingers 7.12502
rthumb 43.2322 -20.3084
lclavicle -7.42958e-015 2.3059e-014
lhumerus 33.6315 -62.7654 22.1528
lradius 92.7485
lwrist 60.5316
lhand 23.1183 18.6381
lfingers 7.12502
lthumb 47.4282 41.1134
rfemur -35.1504 1.32873 29.7018
rtibia 29.6555
rfoot 5.25066 -42.202
rtoes 43.4832
lfemur -25.2449 4.10311 -17.7921
ltibia 28.4816
lfoot -42.087 23.7643
ltoes 34.9703
420
root 0.740093 18.5269 22.5651 -177.703 -30.7962 -164.02
lowerback -5.92785 0.885542 8.60061
upperback -5.76497 0.138718 6.35515
thorax -2.64728 -0.449136 1.82412
lowerneck -11.0724 -3.59586 -4.29584
upperneck 36.6514 -9.79444 4.61606
head 15.072 -5.3811 0.799035
rclavicle -7.05437e-014 -8.22969e-014
rhumerus 12.2234 59.0031 -23.7651
rradius 60.1959
rwrist -60.2452
rhand 18.3882 3.46622
rfingers 7.12502
rthumb 43.0307 -20.7688
lclavicle -7.05437e-014 -8.22969e-014
lhumerus 31.2356 -61.8081 22.3887
lradius 92.4122
lwrist 59.8944
lhand 20.6751 18.0392
lfingers 7.12502
lthumb 45.1635 41.4741
rfemur -35.3081 1.97976 29.1268
rtibia 29.0351
rfoot 0.593836 -43.2904
rtoes 46.7611
lfemur -24.3419 4.94757 -18.1149
ltibia 27.9632
lfoot -40.5375 25.5438
ltoes 32.4351
